<?xml version="1.0" encoding="utf-8"?>
<!-- Generator: Adobe Illustrator 26.1.0, SVG Export Plug-In . SVG Version: 6.00 Build 0)  -->
<svg version="1.1" id="Layer_1" xmlns="http://www.w3.org/2000/svg" xmlns:xlink="http://www.w3.org/1999/xlink" x="0px" y="0px"
	 viewBox="0 0 144.55 41.34" style="enable-background:new 0 0 144.55 41.34;" xml:space="preserve">
<g>
	<path d="M2.38,19.85c-0.34-0.12-0.6-0.33-0.78-0.63c-0.18-0.3-0.27-0.64-0.27-1.02c0-0.48,0.14-0.94,0.42-1.4
		c0.28-0.45,0.65-0.75,1.11-0.92l13.38-4.65c0.24-0.08,0.48-0.12,0.72-0.12c0.42,0,0.75,0.14,0.99,0.42
		c0.24,0.28,0.36,0.62,0.36,1.02c0,0.38-0.12,0.73-0.34,1.06c-0.23,0.33-0.58,0.58-1.04,0.73L6.43,17.9l9.6,3.57
		c0.34,0.12,0.6,0.31,0.78,0.57s0.27,0.54,0.27,0.84c0,0.46-0.17,0.88-0.5,1.25s-0.75,0.55-1.24,0.55c-0.22,0-0.46-0.05-0.72-0.15
		L2.38,19.85z"/>
	<path d="M47.25,20.31c0.15,0.25,0.23,0.57,0.23,0.94c0,0.46-0.07,0.82-0.21,1.08c-0.14,0.26-0.36,0.49-0.66,0.69
		c-1.18,0.78-3.06,2.06-5.64,3.84c-0.78,4.14-1.79,7.4-3.03,9.78c-1.24,2.38-2.81,3.57-4.71,3.57c-1.02,0-1.85-0.31-2.49-0.94
		s-0.96-1.46-0.96-2.48c0-0.94,0.21-1.89,0.63-2.85c0.42-0.96,1.21-2.07,2.35-3.33s2.78-2.7,4.88-4.32l0.09-0.57
		c-1.58,0.66-3.13,0.99-4.65,0.99c-2.24,0-4.21-0.43-5.91-1.3c-1.7-0.87-3.02-2.1-3.96-3.71c-0.94-1.6-1.41-3.46-1.41-5.58
		c0-2.96,0.56-5.57,1.68-7.85C24.59,6.01,26.13,4.25,28.1,3c1.97-1.25,4.17-1.87,6.62-1.87c2.34,0,4.09,0.54,5.27,1.63
		c1.17,1.09,1.75,2.54,1.75,4.33c0,1.18-0.22,2.13-0.65,2.84C40.66,10.64,40.05,11,39.25,11c-0.54,0-0.98-0.13-1.3-0.39
		c-0.33-0.26-0.5-0.62-0.5-1.08c0-0.2,0.04-0.54,0.12-1.02c0.12-0.56,0.18-1,0.18-1.32c0-0.84-0.25-1.49-0.76-1.95
		c-0.51-0.46-1.37-0.69-2.57-0.69c-1.46,0-2.81,0.42-4.06,1.26c-1.25,0.84-2.25,2.1-3.01,3.76c-0.76,1.67-1.14,3.68-1.14,6.02
		c0,2.4,0.65,4.26,1.96,5.56c1.31,1.31,3.21,1.96,5.69,1.96c1.38,0,2.82-0.31,4.32-0.93l0.42-3.66h-3.06c-0.56,0-0.99-0.13-1.29-0.4
		c-0.3-0.27-0.45-0.71-0.45-1.33c0-0.56,0.15-1,0.45-1.32c0.3-0.32,0.7-0.48,1.2-0.48h5.61c0.44,0,0.8,0.15,1.09,0.44
		c0.29,0.29,0.41,0.71,0.35,1.25c-0.06,0.64-0.26,2.09-0.6,4.35l-0.33,2.28c1.6-1.2,3.06-2.24,4.38-3.12
		c0.26-0.16,0.49-0.24,0.69-0.24C46.89,19.94,47.1,20.06,47.25,20.31z M35.26,35.54c0.62-1.18,1.2-3.08,1.74-5.7
		c-1.52,1.3-2.62,2.48-3.28,3.53c-0.67,1.05-1.01,1.97-1.01,2.77c0,0.78,0.28,1.17,0.84,1.17C34.07,37.31,34.64,36.72,35.26,35.54z"
		/>
	<path d="M46.16,25.34c-0.59-0.92-0.88-2.14-0.88-3.66c0-0.9,0.11-2.05,0.34-3.46s0.52-2.73,0.89-3.94
		c0.18-0.64,0.42-1.08,0.72-1.32c0.3-0.24,0.78-0.36,1.44-0.36c1.02,0,1.53,0.34,1.53,1.02c0,0.5-0.19,1.66-0.57,3.48
		c-0.48,2.2-0.72,3.69-0.72,4.47c0,0.6,0.08,1.06,0.24,1.38c0.16,0.32,0.43,0.48,0.81,0.48c0.36,0,0.81-0.25,1.35-0.75
		s1.26-1.29,2.16-2.37c0.24-0.28,0.51-0.42,0.81-0.42c0.26,0,0.46,0.12,0.62,0.36c0.15,0.24,0.22,0.57,0.22,0.99
		c0,0.8-0.19,1.42-0.57,1.86c-1.98,2.42-3.83,3.63-5.55,3.63C47.7,26.72,46.75,26.26,46.16,25.34z M47.35,10.02
		c-0.42-0.39-0.63-0.93-0.63-1.64c0-0.7,0.27-1.28,0.82-1.75c0.55-0.47,1.23-0.71,2.06-0.71c0.74,0,1.34,0.18,1.8,0.54
		S52.09,7.34,52.09,8c0,0.8-0.26,1.44-0.78,1.9c-0.52,0.47-1.21,0.71-2.07,0.71C48.4,10.61,47.77,10.41,47.35,10.02z"/>
	<path d="M53.54,25.34c-0.59-0.92-0.88-2.14-0.88-3.66c0-0.9,0.11-2.05,0.34-3.46s0.52-2.73,0.89-3.94
		c0.18-0.64,0.42-1.08,0.72-1.32c0.3-0.24,0.78-0.36,1.44-0.36c1.02,0,1.53,0.34,1.53,1.02c0,0.5-0.19,1.66-0.57,3.48
		c-0.48,2.2-0.72,3.69-0.72,4.47c0,0.6,0.08,1.06,0.24,1.38c0.16,0.32,0.43,0.48,0.81,0.48c0.36,0,0.81-0.25,1.35-0.75
		c0.54-0.5,1.26-1.29,2.16-2.37c0.24-0.28,0.51-0.42,0.81-0.42c0.26,0,0.46,0.12,0.62,0.36c0.15,0.24,0.22,0.57,0.22,0.99
		c0,0.8-0.19,1.42-0.57,1.86c-1.98,2.42-3.83,3.63-5.55,3.63C55.08,26.72,54.13,26.26,53.54,25.34z M54.73,10.02
		c-0.42-0.39-0.63-0.93-0.63-1.64c0-0.7,0.27-1.28,0.83-1.75c0.55-0.47,1.23-0.71,2.05-0.71c0.74,0,1.34,0.18,1.8,0.54
		c0.46,0.36,0.69,0.87,0.69,1.53c0,0.8-0.26,1.44-0.78,1.9c-0.52,0.47-1.21,0.71-2.07,0.71C55.78,10.61,55.15,10.41,54.73,10.02z"/>
	<path d="M60.59,25.52c-0.31-0.8-0.46-2.08-0.46-3.84c0-2.6,0.37-5.07,1.11-7.41c0.18-0.58,0.47-1.01,0.88-1.28
		c0.41-0.27,0.98-0.4,1.72-0.4c0.4,0,0.68,0.05,0.84,0.15c0.16,0.1,0.24,0.29,0.24,0.57c0,0.32-0.15,1.04-0.45,2.16
		c-0.2,0.8-0.36,1.5-0.48,2.08c-0.12,0.59-0.22,1.33-0.3,2.21c0.54-1.56,1.18-2.88,1.93-3.96s1.52-1.88,2.31-2.42
		c0.79-0.53,1.53-0.79,2.23-0.79s1.2,0.16,1.49,0.48c0.29,0.32,0.43,0.81,0.43,1.47c0,0.64-0.19,1.8-0.57,3.48
		c-0.16,0.72-0.27,1.26-0.33,1.62c1-2.46,2.11-4.25,3.33-5.37c1.22-1.12,2.36-1.68,3.42-1.68c1.3,0,1.95,0.65,1.95,1.95
		c0,0.78-0.22,2.19-0.66,4.23c-0.38,1.74-0.57,2.89-0.57,3.45c0,0.8,0.29,1.2,0.87,1.2c0.4,0,0.88-0.24,1.42-0.73
		s1.29-1.29,2.21-2.39c0.24-0.28,0.51-0.42,0.81-0.42c0.26,0,0.47,0.12,0.62,0.36c0.15,0.24,0.23,0.57,0.23,0.99
		c0,0.8-0.19,1.42-0.57,1.86c-0.86,1.06-1.79,1.93-2.78,2.61c-0.99,0.68-2.11,1.02-3.38,1.02c-1.02,0-1.79-0.29-2.31-0.88
		c-0.52-0.59-0.78-1.44-0.78-2.56c0-0.56,0.14-1.56,0.42-3c0.26-1.26,0.39-2.13,0.39-2.61c0-0.32-0.11-0.48-0.33-0.48
		c-0.26,0-0.63,0.34-1.11,1.01s-0.96,1.56-1.44,2.65c-0.48,1.1-0.87,2.26-1.17,3.48c-0.22,0.96-0.47,1.6-0.76,1.92
		s-0.75,0.48-1.39,0.48c-0.66,0-1.16-0.31-1.49-0.94s-0.5-1.4-0.5-2.29c0-0.76,0.1-1.86,0.3-3.3c0.16-1.28,0.24-2.12,0.24-2.52
		c0-0.32-0.11-0.48-0.33-0.48c-0.3,0-0.68,0.36-1.14,1.08c-0.46,0.72-0.91,1.64-1.33,2.76c-0.43,1.12-0.78,2.22-1.04,3.3
		c-0.22,0.94-0.48,1.58-0.77,1.9c-0.29,0.33-0.75,0.5-1.36,0.5C61.44,26.72,60.9,26.32,60.59,25.52z"/>
	<path d="M98.36,20.31c0.15,0.25,0.22,0.57,0.22,0.94c0,0.46-0.07,0.82-0.21,1.08c-0.14,0.26-0.36,0.49-0.66,0.69l-5.76,3.87
		c-0.76,4.14-1.75,7.39-2.98,9.76c-1.23,2.37-2.8,3.55-4.7,3.55c-1.02,0-1.85-0.31-2.49-0.94c-0.64-0.63-0.96-1.46-0.96-2.48
		c0-0.94,0.21-1.9,0.65-2.88c0.43-0.98,1.23-2.11,2.4-3.37c1.17-1.27,2.83-2.73,4.96-4.37l0.09-0.69c0.14-0.74,0.3-1.8,0.48-3.18
		c-0.4,1.44-0.96,2.53-1.68,3.28c-0.72,0.75-1.48,1.12-2.28,1.12c-0.9,0-1.63-0.41-2.21-1.25c-0.57-0.83-0.85-1.86-0.85-3.1
		c0-1.5,0.1-2.87,0.3-4.12c0.2-1.25,0.53-2.57,0.99-3.97c0.2-0.6,0.48-1.03,0.84-1.29c0.36-0.26,0.93-0.39,1.71-0.39
		c0.44,0,0.74,0.07,0.92,0.21c0.17,0.14,0.25,0.35,0.25,0.63c0,0.16-0.11,0.7-0.33,1.62c-0.2,0.74-0.36,1.41-0.48,2.01
		c-0.16,0.82-0.3,1.6-0.42,2.35s-0.18,1.36-0.18,1.84c0,0.76,0.21,1.14,0.63,1.14c0.3,0,0.67-0.3,1.12-0.9s0.93-1.51,1.44-2.73
		c0.51-1.22,1-2.72,1.48-4.5c0.16-0.6,0.41-1.03,0.74-1.29s0.83-0.39,1.49-0.39c0.46,0,0.78,0.06,0.96,0.18
		c0.18,0.12,0.27,0.32,0.27,0.6c0,0.5-0.26,2.22-0.78,5.16l-0.78,4.83c1.54-1.16,3.04-2.22,4.5-3.18c0.26-0.16,0.49-0.24,0.69-0.24
		C98.01,19.94,98.21,20.06,98.36,20.31z M86.29,35.57c0.62-1.16,1.24-3.09,1.86-5.79c-1.54,1.3-2.66,2.48-3.34,3.55
		c-0.69,1.07-1.04,2-1.04,2.8c0,0.34,0.06,0.62,0.19,0.84c0.13,0.22,0.35,0.33,0.65,0.33C85.11,37.31,85.67,36.73,86.29,35.57z"/>
	<path d="M107.89,12.77c0.18,0.12,0.27,0.32,0.27,0.6c0,0.48-0.26,2.19-0.78,5.13c-0.46,2.82-0.73,4.49-0.81,5.01
		c-0.74,5.14-1.76,9.21-3.06,12.21c-1.3,3-3.03,4.5-5.19,4.5c-1.02,0-1.85-0.31-2.49-0.94c-0.64-0.63-0.96-1.46-0.96-2.48
		c0-0.94,0.21-1.9,0.65-2.88c0.43-0.98,1.23-2.11,2.4-3.37c1.17-1.27,2.83-2.73,4.96-4.37l0.09-0.69c0.14-0.74,0.3-1.8,0.48-3.18
		c-0.4,1.44-0.96,2.53-1.68,3.28c-0.72,0.75-1.48,1.12-2.28,1.12c-0.9,0-1.63-0.41-2.21-1.25c-0.57-0.83-0.85-1.86-0.85-3.1
		c0-1.5,0.1-2.87,0.3-4.12c0.2-1.25,0.53-2.57,0.99-3.97c0.2-0.6,0.48-1.03,0.84-1.29c0.36-0.26,0.93-0.39,1.71-0.39
		c0.44,0,0.74,0.07,0.92,0.21c0.17,0.14,0.25,0.35,0.25,0.63c0,0.16-0.11,0.7-0.33,1.62c-0.2,0.74-0.36,1.41-0.48,2.01
		c-0.16,0.82-0.3,1.6-0.42,2.35s-0.18,1.36-0.18,1.84c0,0.76,0.21,1.14,0.63,1.14c0.3,0,0.67-0.3,1.12-0.9s0.93-1.51,1.44-2.73
		c0.51-1.22,1-2.72,1.48-4.5c0.16-0.6,0.41-1.03,0.74-1.29s0.83-0.39,1.49-0.39C107.39,12.59,107.71,12.65,107.89,12.77z
		 M100.33,35.57c0.62-1.16,1.24-3.09,1.86-5.79c-1.54,1.3-2.66,2.48-3.34,3.55c-0.69,1.07-1.04,2-1.04,2.8
		c0,0.34,0.06,0.62,0.19,0.84c0.13,0.22,0.35,0.33,0.65,0.33C99.15,37.31,99.71,36.73,100.33,35.57z"/>
	<path d="M109.85,26.22c-0.35-0.33-0.53-0.76-0.53-1.3c0-0.44,0.14-0.92,0.42-1.44l12.57-23.61c0.24-0.46,0.51-0.8,0.83-1.02
		c0.31-0.22,0.62-0.33,0.95-0.33c0.46,0,0.85,0.19,1.18,0.55c0.33,0.37,0.5,0.83,0.5,1.37c0,0.44-0.11,0.85-0.33,1.23L112.6,25.76
		c-0.18,0.32-0.41,0.56-0.67,0.72c-0.27,0.16-0.56,0.24-0.86,0.24C110.61,26.72,110.2,26.55,109.85,26.22z"/>
	<path d="M127.69,24.65c-0.42,0-0.75-0.14-0.99-0.42s-0.36-0.62-0.36-1.02c0-0.38,0.12-0.74,0.35-1.06
		c0.23-0.33,0.57-0.58,1.03-0.74l10.5-3.54l-9.6-3.57c-0.34-0.12-0.6-0.31-0.78-0.57c-0.18-0.26-0.27-0.54-0.27-0.84
		c0-0.46,0.17-0.87,0.5-1.24c0.33-0.37,0.74-0.56,1.25-0.56c0.22,0,0.46,0.05,0.72,0.15l12.24,4.68c0.34,0.12,0.6,0.33,0.78,0.63
		c0.18,0.3,0.27,0.64,0.27,1.02c0,0.48-0.14,0.94-0.42,1.4c-0.28,0.45-0.65,0.76-1.11,0.92l-13.38,4.65
		C128.17,24.61,127.93,24.65,127.69,24.65z"/>
</g>
</svg>
